<svg width="110" height="154" viewBox="0 0 110 154" fill="none" xmlns="http://www.w3.org/2000/svg">
<rect x="18.3284" y="17" width="72" height="72" fill="#83EBC2"/>
<path d="M55.7299 0C55.3275 0 54.9251 0 54.5226 0C54.1202 0 53.7177 0 53.3317 0C14.0432 0.835186 -11.3038 32.6579 5.03583 69.5752L16.3597 95.1549L25.3508 115.473L37.3487 142.588C44.0789 157.804 64.9795 157.804 71.7031 142.588L83.701 115.473L92.692 95.1549L104.009 69.5752C120.349 32.6579 95.002 0.835186 55.7299 0ZM80.4651 67.0888L72.9628 73.7128L66.9982 78.964L59.0378 85.9735C57.7781 87.0739 56.1819 87.6777 54.5324 87.6777C52.883 87.6777 51.2868 87.0739 50.0271 85.9735L42.0667 78.964L36.089 73.7128L28.5637 67.1023C17.7404 57.5602 19.7493 39.5615 32.5325 33.0626L32.9284 32.8664L33.3243 32.6805C40.9051 29.218 49.0292 31.1521 54.5226 36.2748C60.0128 31.1521 68.1401 29.218 75.7209 32.6805L76.1201 32.8664L76.5127 33.0592C89.2926 39.5615 91.3048 57.5602 80.4651 67.1023V67.0888Z" fill="#3D2979"/>
<path d="M64.7048 64.0944C65.0478 64.4375 65.2406 64.9028 65.2406 65.388C65.2406 65.8732 65.0478 66.3386 64.7048 66.6817C62.0595 69.265 58.5209 70.7302 54.8238 70.7732H54.7103C51.0457 70.7241 47.5424 69.2577 44.9354 66.6817C44.6016 66.3371 44.4165 65.8751 44.4199 65.3953C44.4234 64.9155 44.6152 64.4563 44.954 64.1165C45.2928 63.7768 45.7515 63.5837 46.2313 63.5789C46.7111 63.574 47.1736 63.7578 47.5191 64.0907C49.4547 65.9787 52.0362 67.0595 54.7396 67.1136H54.8238C57.5622 67.088 60.1847 66.0049 62.1431 64.0907C62.4856 63.7559 62.9457 63.5688 63.4247 63.5695C63.9036 63.5701 64.3632 63.7586 64.7048 64.0944Z" fill="#3D2979"/>
<path d="M68.2364 53.2947C69.8533 53.2947 71.1641 51.9839 71.1641 50.367C71.1641 48.7501 69.8533 47.4393 68.2364 47.4393C66.6194 47.4393 65.3087 48.7501 65.3087 50.367C65.3087 51.9839 66.6194 53.2947 68.2364 53.2947Z" fill="#3D2979"/>
<path d="M45.4295 52.1968H37.3783C36.893 52.1968 36.4276 52.004 36.0844 51.6609C35.7412 51.3177 35.5485 50.8523 35.5485 50.367C35.5485 49.8817 35.7412 49.4163 36.0844 49.0731C36.4276 48.73 36.893 48.5372 37.3783 48.5372H45.4295C45.9148 48.5372 46.3802 48.73 46.7234 49.0731C47.0665 49.4163 47.2593 49.8817 47.2593 50.367C47.2593 50.8523 47.0665 51.3177 46.7234 51.6609C46.3802 52.004 45.9148 52.1968 45.4295 52.1968Z" fill="#3D2979"/>
</svg>
