<svg width="778" height="183" viewBox="0 0 778 183" fill="none" xmlns="http://www.w3.org/2000/svg">
<rect y="164" width="732" height="8" rx="4" fill="#83EBC2"/>
<path d="M18.0284 147.2C13.6284 147.2 10.4784 146.55 8.5784 145.25C6.6784 143.95 5.5284 142.25 5.1284 140.15C4.7284 138.05 4.5284 135.8 4.5284 133.4V56C4.5284 53.8 4.7284 51.7 5.1284 49.7C5.5284 47.6 6.6784 45.9 8.5784 44.6C10.4784 43.2 13.7284 42.5 18.3284 42.5C21.4284 42.5 23.6784 42.7 25.0784 43.1C26.5784 43.5 27.6284 44 28.2284 44.6C28.9284 45.2 29.6284 45.9 30.3284 46.7L61.3784 86.6H60.4784L91.3784 46.85C92.3784 45.75 93.2784 44.9 94.0784 44.3C94.9784 43.7 96.1284 43.25 97.5284 42.95C99.0284 42.65 101.128 42.5 103.828 42.5C108.328 42.5 111.528 43.2 113.428 44.6C115.328 45.9 116.478 47.6 116.878 49.7C117.278 51.8 117.478 54 117.478 56.3V133.7C117.478 135.9 117.278 138.05 116.878 140.15C116.478 142.25 115.328 143.95 113.428 145.25C111.528 146.55 108.278 147.2 103.678 147.2C99.1784 147.2 95.9784 146.55 94.0784 145.25C92.1784 143.85 91.0284 142.1 90.6284 140C90.2284 137.8 90.0284 135.6 90.0284 133.4V90.8L72.4784 114.65C72.0784 115.15 71.4784 115.9 70.6784 116.9C69.8784 117.9 68.7284 118.8 67.2284 119.6C65.7284 120.4 63.6284 120.8 60.9284 120.8C58.2284 120.8 56.0784 120.4 54.4784 119.6C52.9784 118.8 51.8284 117.95 51.0284 117.05C50.2284 116.05 49.6284 115.25 49.2284 114.65L31.8284 90.95V133.7C31.8284 135.9 31.6284 138.05 31.2284 140.15C30.8284 142.25 29.6784 143.95 27.7784 145.25C25.8784 146.55 22.6284 147.2 18.0284 147.2ZM220.576 128.3C222.076 131.3 222.876 133.85 222.976 135.95C223.076 138.05 222.426 139.9 221.026 141.5C219.626 143.1 217.376 144.7 214.276 146.3C209.476 148.6 205.776 149.3 203.176 148.4C200.576 147.6 198.126 144.75 195.826 139.85L170.326 87.65L145.126 140C142.726 144.7 140.226 147.45 137.626 148.25C135.026 149.15 131.376 148.45 126.676 146.15C123.576 144.65 121.276 143.1 119.776 141.5C118.376 139.9 117.726 138.05 117.826 135.95C117.926 133.85 118.726 131.3 120.226 128.3L157.876 50.3C159.076 47.9 160.826 46 163.126 44.6C165.526 43.1 167.976 42.35 170.476 42.35C172.276 42.35 173.926 42.7 175.426 43.4C177.026 44 178.476 44.9 179.776 46.1C181.076 47.3 182.126 48.75 182.926 50.45L220.576 128.3ZM146.626 125.6L158.026 102.2H182.776L194.176 125.6H146.626ZM242.617 147.2C238.117 147.2 234.917 146.55 233.017 145.25C231.117 143.85 229.967 142.1 229.567 140C229.167 137.8 228.967 135.6 228.967 133.4V56C228.967 53.8 229.167 51.65 229.567 49.55C229.967 47.45 231.117 45.75 233.017 44.45C234.917 43.05 238.167 42.35 242.767 42.35H272.617C276.417 42.35 280.517 43.15 284.917 44.75C289.317 46.25 293.467 48.6 297.367 51.8C301.367 55 304.617 59 307.117 63.8C309.617 68.6 310.867 74.3 310.867 80.9C310.867 87.4 309.617 93.05 307.117 97.85C304.617 102.65 301.367 106.65 297.367 109.85C293.467 112.95 289.317 115.3 284.917 116.9C280.517 118.4 276.367 119.15 272.467 119.15H256.417V133.55C256.417 135.75 256.217 137.9 255.817 140C255.417 142.1 254.267 143.85 252.367 145.25C250.467 146.55 247.217 147.2 242.617 147.2ZM256.417 91.7H272.617C273.917 91.7 275.417 91.4 277.117 90.8C278.817 90.1 280.317 88.95 281.617 87.35C282.917 85.75 283.567 83.55 283.567 80.75C283.567 78.65 283.067 76.8 282.067 75.2C281.067 73.5 279.717 72.2 278.017 71.3C276.417 70.3 274.567 69.8 272.467 69.8H256.417V91.7ZM403.975 128.3C405.475 131.3 406.275 133.85 406.375 135.95C406.475 138.05 405.825 139.9 404.425 141.5C403.025 143.1 400.775 144.7 397.675 146.3C392.875 148.6 389.175 149.3 386.575 148.4C383.975 147.6 381.525 144.75 379.225 139.85L353.725 87.65L328.525 140C326.125 144.7 323.625 147.45 321.025 148.25C318.425 149.15 314.775 148.45 310.075 146.15C306.975 144.65 304.675 143.1 303.175 141.5C301.775 139.9 301.125 138.05 301.225 135.95C301.325 133.85 302.125 131.3 303.625 128.3L341.275 50.3C342.475 47.9 344.225 46 346.525 44.6C348.925 43.1 351.375 42.35 353.875 42.35C355.675 42.35 357.325 42.7 358.825 43.4C360.425 44 361.875 44.9 363.175 46.1C364.475 47.3 365.525 48.75 366.325 50.45L403.975 128.3ZM330.025 125.6L341.425 102.2H366.175L377.575 125.6H330.025ZM424.816 147.2C420.416 147.2 417.266 146.55 415.366 145.25C413.466 143.95 412.316 142.25 411.916 140.15C411.516 138.05 411.316 135.8 411.316 133.4V56C411.316 53.8 411.516 51.7 411.916 49.7C412.316 47.6 413.466 45.9 415.366 44.6C417.266 43.2 420.516 42.5 425.116 42.5C428.216 42.5 430.466 42.7 431.866 43.1C433.366 43.5 434.416 44 435.016 44.6C435.716 45.2 436.416 45.9 437.116 46.7L468.166 86.6H467.266L498.166 46.85C499.166 45.75 500.066 44.9 500.866 44.3C501.766 43.7 502.916 43.25 504.316 42.95C505.816 42.65 507.916 42.5 510.616 42.5C515.116 42.5 518.316 43.2 520.216 44.6C522.116 45.9 523.266 47.6 523.666 49.7C524.066 51.8 524.266 54 524.266 56.3V133.7C524.266 135.9 524.066 138.05 523.666 140.15C523.266 142.25 522.116 143.95 520.216 145.25C518.316 146.55 515.066 147.2 510.466 147.2C505.966 147.2 502.766 146.55 500.866 145.25C498.966 143.85 497.816 142.1 497.416 140C497.016 137.8 496.816 135.6 496.816 133.4V90.8L479.266 114.65C478.866 115.15 478.266 115.9 477.466 116.9C476.666 117.9 475.516 118.8 474.016 119.6C472.516 120.4 470.416 120.8 467.716 120.8C465.016 120.8 462.866 120.4 461.266 119.6C459.766 118.8 458.616 117.95 457.816 117.05C457.016 116.05 456.416 115.25 456.016 114.65L438.616 90.95V133.7C438.616 135.9 438.416 138.05 438.016 140.15C437.616 142.25 436.466 143.95 434.566 145.25C432.666 146.55 429.416 147.2 424.816 147.2ZM546.255 147.35C541.755 147.35 538.555 146.7 536.655 145.4C534.755 144 533.605 142.25 533.205 140.15C532.805 137.95 532.605 135.75 532.605 133.55V56C532.605 53.8 532.805 51.65 533.205 49.55C533.605 47.45 534.755 45.75 536.655 44.45C538.555 43.05 541.805 42.35 546.405 42.35C551.005 42.35 554.205 43.05 556.005 44.45C557.905 45.75 559.055 47.45 559.455 49.55C559.855 51.65 560.055 53.85 560.055 56.15V133.7C560.055 135.9 559.855 138.05 559.455 140.15C559.055 142.25 557.905 144 556.005 145.4C554.105 146.7 550.855 147.35 546.255 147.35ZM622.343 148.85C615.143 148.85 608.343 147.4 601.943 144.5C595.643 141.6 590.043 137.6 585.143 132.5C580.243 127.4 576.393 121.5 573.593 114.8C570.893 108.1 569.543 100.95 569.543 93.35C569.543 86.05 570.943 79.25 573.743 72.95C576.543 66.55 580.393 60.95 585.293 56.15C590.293 51.25 596.043 47.45 602.543 44.75C609.043 41.95 615.993 40.55 623.393 40.55C626.593 40.55 630.043 40.85 633.743 41.45C637.443 42.05 641.043 43 644.543 44.3C648.143 45.5 651.243 47 653.843 48.8C655.943 50.2 657.843 51.7 659.543 53.3C661.343 54.9 662.243 56.9 662.243 59.3C662.243 60.5 661.943 61.8 661.343 63.2C660.743 64.6 659.893 66.1 658.793 67.7C656.893 70.5 654.993 72.55 653.093 73.85C651.193 75.05 649.393 75.65 647.693 75.65C646.593 75.65 645.443 75.4 644.243 74.9C643.143 74.3 641.593 73.4 639.593 72.2C638.993 71.8 637.843 71.3 636.143 70.7C634.443 70 632.393 69.4 629.993 68.9C627.693 68.3 625.243 68 622.643 68C617.943 68 613.643 69.15 609.743 71.45C605.843 73.65 602.743 76.7 600.443 80.6C598.143 84.5 596.993 88.85 596.993 93.65C596.993 98.55 598.193 103.1 600.593 107.3C602.993 111.4 606.143 114.75 610.043 117.35C614.043 119.85 618.343 121.1 622.943 121.1C624.743 121.1 626.493 121.05 628.193 120.95C629.993 120.85 631.743 120.65 633.443 120.35C635.143 120.05 636.643 119.65 637.943 119.15V106.25H626.843C625.043 106.25 623.343 106.1 621.743 105.8C620.143 105.4 618.843 104.4 617.843 102.8C616.843 101.2 616.343 98.45 616.343 94.55C616.343 90.65 616.893 87.9 617.993 86.3C619.093 84.7 620.493 83.75 622.193 83.45C623.893 83.15 625.593 83 627.293 83H653.543C657.543 83.1 660.343 83.85 661.943 85.25C663.543 86.55 664.493 88.15 664.793 90.05C665.193 91.95 665.393 93.95 665.393 96.05V126.8C665.393 129.6 664.193 132.5 661.793 135.5C659.393 138.4 656.143 140.9 652.043 143C649.543 144.3 646.743 145.35 643.643 146.15C640.543 147.05 637.193 147.7 633.593 148.1C630.093 148.6 626.343 148.85 622.343 148.85Z" fill="#3D2979"/>
<rect x="686.328" y="46" width="72" height="72" fill="#83EBC2"/>
<path d="M723.73 29C723.327 29 722.925 29 722.523 29C722.12 29 721.718 29 721.332 29C682.043 29.8352 656.696 61.6579 673.036 98.5752L684.36 124.155L693.351 144.473L705.349 171.588C712.079 186.804 732.979 186.804 739.703 171.588L751.701 144.473L760.692 124.155L772.009 98.5752C788.349 61.6579 763.002 29.8352 723.73 29ZM748.465 96.0888L740.963 102.713L734.998 107.964L727.038 114.973C725.778 116.074 724.182 116.678 722.532 116.678C720.883 116.678 719.287 116.074 718.027 114.973L710.067 107.964L704.089 102.713L696.564 96.1023C685.74 86.5602 687.749 68.5615 700.532 62.0626L700.928 61.8664L701.324 61.6805C708.905 58.218 717.029 60.1521 722.523 65.2748C728.013 60.1521 736.14 58.218 743.721 61.6805L744.12 61.8664L744.513 62.0592C757.293 68.5615 759.305 86.5602 748.465 96.1023V96.0888Z" fill="#3D2979"/>
<path d="M732.705 93.0944C733.048 93.4375 733.241 93.9028 733.241 94.388C733.241 94.8732 733.048 95.3386 732.705 95.6817C730.059 98.265 726.521 99.7302 722.824 99.7732H722.71C719.046 99.7241 715.542 98.2577 712.935 95.6817C712.602 95.3371 712.416 94.8751 712.42 94.3953C712.423 93.9155 712.615 93.4563 712.954 93.1165C713.293 92.7768 713.751 92.5837 714.231 92.5789C714.711 92.574 715.174 92.7578 715.519 93.0907C717.455 94.9787 720.036 96.0595 722.74 96.1136H722.824C725.562 96.088 728.185 95.0049 730.143 93.0907C730.486 92.7559 730.946 92.5688 731.425 92.5695C731.904 92.5701 732.363 92.7586 732.705 93.0944Z" fill="#3D2979"/>
<path d="M736.236 82.2947C737.853 82.2947 739.164 80.9839 739.164 79.367C739.164 77.7501 737.853 76.4393 736.236 76.4393C734.619 76.4393 733.309 77.7501 733.309 79.367C733.309 80.9839 734.619 82.2947 736.236 82.2947Z" fill="#3D2979"/>
<path d="M713.429 81.1968H705.378C704.893 81.1968 704.428 81.004 704.084 80.6609C703.741 80.3177 703.548 79.8523 703.548 79.367C703.548 78.8817 703.741 78.4163 704.084 78.0731C704.428 77.73 704.893 77.5372 705.378 77.5372H713.429C713.915 77.5372 714.38 77.73 714.723 78.0731C715.067 78.4163 715.259 78.8817 715.259 79.367C715.259 79.8523 715.067 80.3177 714.723 80.6609C714.38 81.004 713.915 81.1968 713.429 81.1968Z" fill="#3D2979"/>
</svg>
